<svg clip-rule="evenodd" fill-rule="evenodd" height="1265" image-rendering="optimizeQuality" shape-rendering="geometricPrecision" text-rendering="geometricPrecision" viewBox="999.99 1000.41 23139.56 10719.88" width="2500" xmlns="http://www.w3.org/2000/svg"><path d="m10628.83 1000.42-1795.52 5647.26-1180.87 388.57c-307.82 104.41-622.17 167.44-928.29 186.81-1225.5 78.34-2316.12-538.52-2307.31-1972.8 3.37-561.25 175.51-1247.54 573.1-2066.47-1405.68 1732.44-2753.68 3858.09-2767.19 5389.09-5.27 576.11 178.65 1068.07 619.67 1423.41 283.32 228.22 579.47 385.01 882.44 485.18l-393.87 1238.81h-2331l3408.33-10719.87h2331l23.83 4826.88 1534.68-4826.88h2331zm-2747.59 8641.7-660.74 2078.17h-2439.41l22.41-1096.15c22.58-.87 45.17-1.94 67.74-3.22 1016.83-57.68 2026.35-526.57 2817.03-888.48 47.27-21.65 113.21-52.56 192.97-90.33zm12671.02-8641.7h3587.29l-680.8 2141.26h-1856.67l-650.64 2046.4h1734.7l-646.33 2032.84h-1734.7l-749.75 2358.1h2046.4l-680.8 2141.26h-6501.03l329.09-4594.23-1460.71 4594.23h-2791.77l1259.19-3960.38c1973.96-965.4 4358.57-2135.64 6479.28-3177.51l-814.12 1258.44-39.01 1793.55 992.07-3120.26c2954.25-1451.45 5360.81-2636.27 5360.81-2636.27 141.95-79.27 115.19-166.52-62.35-111.84-35.03 10.87-3871.12 1272.85-7779.76 2558.87l2057.59-3324.47h2602.04zm-8060.14 4443.34 1412.74-4443.34h2791.77l-1086.56 3417.44zm1172.87-4443.34-1440.76 4531.49-3117.97 1025.96 1766.96-5557.45zm-2193.3 6898.37-1215.03 3821.5h-2791.77l704.44-2215.62c666.91-319.87 1860.78-901.15 3302.35-1605.88z" fill="#373435" fill-rule="nonzero"/></svg>